<svg version="1.1" id="Calque_2" xmlns="http://www.w3.org/2000/svg" xmlns:xlink="http://www.w3.org/1999/xlink" x="0px" y="0px"
	 width="30%" viewBox="0 0 1024 1024"  xml:space="preserve">
<g id="Logo">
<path fill="#A9A9A9" opacity="1.000000" stroke="none" 
	d="
M606.721802,142.277527 
	C614.317871,152.914017 624.020020,155.518631 636.830017,155.389984 
	C712.486267,154.630249 788.153137,154.932205 863.816467,154.880798 
	C870.483337,154.876266 870.901001,155.216248 870.878479,161.950272 
	C870.819397,179.611374 870.574463,197.276230 870.550232,214.932083 
	C870.464539,277.255432 870.902954,339.579407 871.034424,401.903351 
	C871.042786,405.859344 872.135803,408.838684 875.006348,411.608948 
	C896.709778,432.554291 918.320068,453.596344 939.930481,474.637878 
	C952.574280,486.948761 965.165100,499.313995 977.866150,511.739288 
	C977.961548,513.809448 976.125977,514.724426 974.879333,515.948181 
	C943.367737,546.882874 911.978271,577.944702 880.182007,608.584229 
	C873.114014,615.395020 870.070618,622.287842 870.131409,632.404968 
	C870.594666,709.566162 870.362244,786.731506 870.342346,863.895569 
	C870.340454,871.347229 870.328003,871.348511 862.571289,871.348145 
	C783.407410,871.344360 704.243591,871.360474 625.079773,871.274780 
	C621.179688,871.270569 618.179749,872.124084 615.313721,875.013123 
	C592.665466,897.842896 569.886414,920.543091 547.104492,943.239990 
	C536.837463,953.468689 526.397766,963.525146 516.202576,973.824280 
	C513.540771,976.513184 511.989563,975.702026 509.725281,973.415283 
	C477.481995,940.851746 445.110382,908.415039 412.948639,875.771423 
	C409.457123,872.227661 405.905792,870.937073 401.081665,870.945435 
	C321.751312,871.082703 242.420700,871.086304 163.090164,871.123962 
	C155.664902,871.127502 155.651688,871.140320 155.651398,863.706421 
	C155.648331,784.214294 155.614395,704.722168 155.739090,625.230225 
	C155.746460,620.531738 154.431274,617.210754 151.043228,613.869080 
	C118.417068,581.689819 86.027168,549.270996 53.388645,517.104492 
	C49.665581,513.435242 51.673412,511.623016 54.199039,509.099823 
	C86.146492,477.183197 117.999123,445.171082 150.071396,413.380554 
	C154.035965,409.450806 155.793503,405.609802 155.780136,399.930969 
	C155.593872,320.767365 155.657974,241.603149 155.662994,162.439087 
	C155.663437,155.434998 155.670731,155.599121 162.723953,155.560699 
	C202.217270,155.345551 241.709808,155.656677 281.205719,155.275970 
	C321.008087,154.892303 360.820465,155.411270 400.626709,155.743439 
	C405.548828,155.784515 408.968109,154.236191 412.402588,150.744553 
	C444.532410,118.080498 476.855682,85.606758 509.050995,53.006901 
	C512.055237,49.964905 514.118042,49.300755 517.576172,52.797310 
	C547.099182,82.648415 576.815613,112.308220 606.721802,142.277527 
M849.315063,227.307480 
	C850.484436,225.397110 850.831299,223.309006 850.825378,221.091995 
	C850.788635,207.435928 850.676025,193.778244 850.855103,180.124588 
	C850.907898,176.096695 849.320435,174.946808 845.553772,174.983734 
	C832.398621,175.112701 819.241333,175.047531 806.085083,174.998367 
	C802.532471,174.985092 799.065063,175.042877 796.392761,178.744476 
	C795.189392,175.941208 793.285583,174.840088 791.013428,175.385223 
	C785.899963,176.612061 780.913635,175.040756 775.865112,175.048111 
	C732.406006,175.111420 688.946899,175.134781 645.487854,175.220718 
	C643.770813,175.224106 641.857422,174.593399 639.939148,176.298782 
	C652.616699,189.741638 665.273376,203.023697 678.896912,215.715958 
	C682.914978,210.802444 684.427795,204.825531 689.234497,201.210632 
	C692.274292,205.574295 695.644470,205.842087 698.942444,201.938171 
	C700.886292,199.637161 702.702820,197.398926 707.067810,196.947418 
	C702.065186,205.264969 697.658569,212.996887 692.844238,220.465942 
	C689.104309,226.267914 689.001831,226.007553 693.824890,231.208771 
	C706.918823,245.329498 722.303101,257.117889 734.799255,271.875824 
	C739.507446,277.436127 745.501648,281.887268 750.518250,287.212616 
	C754.983521,291.952637 760.749695,295.323059 764.421448,300.885773 
	C766.231201,303.627594 768.756592,304.983307 771.637817,303.528290 
	C769.232483,306.102478 770.756592,307.970032 772.696533,309.861877 
	C782.096741,319.029205 791.785889,327.927185 800.776733,337.481354 
	C815.716370,353.356964 831.564819,368.310974 846.836975,383.844879 
	C847.702271,384.725067 848.427490,386.055145 850.082886,385.776245 
	C851.133972,384.448395 850.656860,382.898621 850.666565,381.467072 
	C850.759033,367.824738 850.564026,354.175995 850.917542,340.541168 
	C851.268494,327.005493 850.132751,313.518250 850.639771,299.947723 
	C851.428040,278.850403 850.824646,257.700287 850.760132,236.572723 
	C850.751099,233.624008 851.219116,230.515671 849.315063,227.307480 
M803.331970,691.849182 
	C799.811218,689.956543 797.367859,691.226013 794.723206,693.979126 
	C783.791016,705.359863 773.005981,716.942444 761.734070,727.917664 
	C752.119873,737.278870 742.728027,746.923096 732.827393,756.008545 
	C730.213074,758.407715 729.902527,760.321777 732.540344,763.009460 
	C740.706116,771.329651 748.002747,780.406433 755.263672,789.522400 
	C765.837158,802.797180 776.692017,815.847656 787.292297,829.101440 
	C788.604431,830.742065 790.741638,832.424438 789.756714,835.139404 
	C782.220032,836.271423 782.220032,836.271423 781.269592,842.977051 
	C779.343811,842.366638 778.362488,840.794373 777.225769,839.442627 
	C763.524658,823.149658 749.702820,806.955505 736.205994,790.494873 
	C731.402832,784.636963 725.588623,779.405945 723.717102,772.253723 
	C725.769470,773.161499 727.896362,773.183960 730.047668,772.744263 
	C731.668762,772.412842 732.788757,771.534241 732.815674,769.751526 
	C732.859619,766.845642 731.408325,764.700867 729.135986,763.084839 
	C727.448181,761.884521 726.452637,763.357727 725.283386,764.217651 
	C722.513000,766.254944 723.954407,769.476196 722.442017,771.693237 
	C719.585632,769.228149 717.725159,771.076355 715.720764,773.095337 
	C694.718018,794.250916 673.670654,815.362366 652.655823,836.506042 
	C648.056396,841.133667 643.536987,845.840820 638.386536,851.120422 
	C641.101440,851.323730 642.741394,851.551025 644.381714,851.553833 
	C671.160767,851.599243 697.940002,851.689331 724.718811,851.617798 
	C748.369751,851.554626 772.018616,851.770813 795.673035,851.217346 
	C812.135925,850.832092 828.625366,851.325500 845.096313,851.710510 
	C849.581421,851.815308 850.740967,850.216125 850.734924,845.934448 
	C850.640381,778.960632 850.690735,711.986633 850.669250,645.012634 
	C850.668701,643.430542 851.187317,641.699341 849.874451,640.039185 
	C849.303345,640.347107 848.653137,640.532471 848.231262,640.949097 
	C835.431213,653.589905 822.710449,666.312195 809.791870,678.830383 
	C808.366943,680.211182 809.650940,682.664429 806.835632,683.429199 
	C802.148621,684.702332 801.801636,688.113464 803.988953,692.006836 
	C803.988953,692.006836 804.009705,691.976685 803.331970,691.849182 
M552.287842,696.324829 
	C556.134827,706.260620 560.076904,716.161255 563.777710,726.151245 
	C565.083435,729.675781 566.583191,731.131104 570.743896,730.032471 
	C586.437378,725.888977 601.411987,720.103882 615.825806,712.609192 
	C699.757935,668.967834 746.436157,573.519409 733.856384,483.490967 
	C728.078003,442.137909 712.800842,404.788330 686.921692,372.068298 
	C656.896240,334.105835 617.637268,309.783478 571.579407,295.863434 
	C567.088379,294.506073 565.703308,296.670380 564.301880,300.157593 
	C548.094299,340.487732 531.814758,380.788910 515.517456,421.082886 
	C514.879517,422.660126 514.857361,424.794525 512.326050,425.365753 
	C511.893646,424.744293 511.264862,424.152710 511.010101,423.429382 
	C501.548981,396.563568 491.030151,370.109467 480.210114,343.767914 
	C474.200134,329.136566 468.458221,314.395203 462.570526,299.713470 
	C461.484039,297.004242 460.484650,294.645477 456.457916,295.774811 
	C400.513214,311.465240 355.778168,343.021454 325.103088,392.352234 
	C294.426025,441.686279 283.010101,495.829193 294.340271,553.271729 
	C311.989563,642.751282 365.720276,700.622559 452.020172,728.791870 
	C459.826569,731.340027 459.790833,731.006836 462.852478,723.300415 
	C478.654816,683.524780 494.522156,643.774963 510.398651,604.028870 
	C511.030060,602.448120 511.264130,600.365967 514.319763,600.133484 
	C526.269897,632.113342 539.326294,663.784180 552.287842,696.324829 
M338.506165,174.405701 
	C326.194244,174.403381 313.882172,174.360550 301.570435,174.406219 
	C261.602783,174.554504 221.635254,174.817551 181.667770,174.802399 
	C176.492661,174.800430 175.247833,176.575531 175.299637,181.493973 
	C175.764496,225.638687 175.162704,269.784637 175.705505,313.936646 
	C175.983643,336.559174 175.461868,359.226440 175.366974,381.873840 
	C175.360382,383.447052 174.770340,385.172729 176.497818,387.304840 
	C247.142776,316.889069 317.666321,246.594315 388.189850,176.299591 
	C388.024414,175.832474 387.859009,175.365341 387.693573,174.898224 
	C371.654053,173.899857 355.564697,174.654358 338.506165,174.405701 
M239.766693,701.734131 
	C218.208344,680.914612 198.179047,658.533997 175.290695,637.595886 
	C175.290695,641.310059 175.291840,643.800232 175.290558,646.290344 
	C175.267120,691.614075 175.233643,736.937805 175.223984,782.261536 
	C175.219437,803.583984 175.258682,824.906372 175.283218,846.228821 
	C175.286285,848.894958 174.808731,851.760620 179.056763,851.659790 
	C192.210449,851.347595 205.374588,852.090576 218.527618,851.228760 
	C222.638748,850.959412 227.524673,848.438599 230.318680,849.250549 
	C240.086716,852.089294 249.802017,850.753845 259.481750,850.944092 
	C277.930634,851.306641 296.393372,850.929993 314.850342,850.924072 
	C337.173492,850.916931 359.496613,850.984375 381.819763,850.984924 
	C383.085846,850.984985 384.500153,851.344482 385.938416,849.811951 
	C384.075470,846.796936 381.417297,844.344116 378.890350,841.802551 
	C349.078308,811.820068 319.249664,781.854004 289.438538,751.870544 
	C283.449341,745.846802 277.308716,739.955139 271.614532,733.661804 
	C266.032013,727.491821 258.556244,723.463928 253.844086,716.144897 
	C250.407257,710.806763 244.870529,706.820496 239.766693,701.734131 
M321.426941,755.093994 
	C327.208557,760.851501 333.012329,766.587036 338.767944,772.370422 
	C364.023438,797.747742 389.276886,823.127136 414.490051,848.546570 
	C416.627472,850.701538 418.958710,851.698303 422.025024,851.674988 
	C435.683441,851.570862 449.343109,851.636597 463.002228,851.604675 
	C465.141144,851.599670 467.351074,851.687805 469.315277,849.936157 
	C469.174316,849.065308 469.125153,848.074890 468.848297,847.152893 
	C463.341766,828.816101 456.930939,810.782227 450.592377,792.723938 
	C449.856934,790.628723 448.451508,789.746216 446.259491,789.195251 
	C399.497162,777.442139 358.028595,755.666443 322.530151,722.948425 
	C280.615295,684.316589 252.786301,637.237366 239.165405,581.860229 
	C238.324707,578.442261 236.656738,576.842407 233.520813,575.810852 
	C215.818573,569.987549 198.130661,564.116943 180.505753,558.064697 
	C176.238922,556.599548 175.207077,557.983337 175.248352,562.045471 
	C175.375290,574.537292 175.632187,587.045166 175.134476,599.518738 
	C174.877472,605.959717 177.075500,610.467651 181.559860,614.830750 
	C199.584991,632.368591 217.465302,650.058777 235.197784,667.892883 
	C263.851807,696.711121 292.347076,725.687195 321.426941,755.093994 
M732.293640,727.793579 
	C770.638245,689.549927 808.965576,651.289062 847.368103,613.103638 
	C849.791809,610.693665 850.958008,608.239624 850.912903,604.781921 
	C850.723877,590.284973 850.775940,575.784851 850.688538,561.286255 
	C850.679932,559.858826 851.153137,558.268250 849.862610,557.000854 
	C848.321777,556.602051 846.942383,557.304565 845.555969,557.769836 
	C827.877930,563.701416 810.224609,569.707642 792.520630,575.560608 
	C789.661072,576.505981 788.896362,578.467102 788.241089,581.038879 
	C776.120728,628.611816 753.669434,670.771667 720.566467,706.950012 
	C682.072144,749.020569 634.936768,776.902344 579.351074,790.167908 
	C576.724060,790.794800 575.321472,791.971619 574.509460,794.450989 
	C568.810486,811.852966 563.112854,829.256287 557.228455,846.595947 
	C555.922485,850.444336 556.799133,851.706055 560.830200,851.665771 
	C573.994812,851.534119 587.165649,851.416016 600.325317,851.699402 
	C605.774536,851.816772 609.713379,849.978638 613.533630,846.155334 
	C652.871521,806.786072 692.350647,767.558044 732.293640,727.793579 
M335.022888,291.499023 
	C343.373016,284.584106 352.138580,278.218506 361.356232,272.536316 
	C387.350922,256.512024 415.199127,244.850952 444.908142,237.716080 
	C447.919678,236.992844 449.820129,235.579788 450.888885,232.494812 
	C456.009521,217.714264 461.443054,203.041595 466.504028,188.241226 
	C467.870972,184.243790 469.981415,180.364288 470.031158,176.044174 
	C469.499878,175.759613 469.214722,175.477158 468.921417,175.468369 
	C452.950745,174.989822 436.992676,173.805740 420.995636,174.711609 
	C418.894196,174.830597 417.718414,175.972839 416.399384,177.282913 
	C387.916748,205.571960 359.362701,233.789200 330.921753,262.120026 
	C280.051819,312.792999 229.258926,363.543304 178.376480,414.203644 
	C176.187653,416.382904 175.258514,418.618713 175.283752,421.682526 
	C175.401871,436.009491 175.320908,450.337921 175.353012,464.665771 
	C175.365234,470.121735 175.785095,470.426361 181.189209,468.599945 
	C198.850784,462.631042 216.478500,456.561462 234.156937,450.643219 
	C237.003555,449.690216 238.312469,448.161255 238.982529,445.136108 
	C243.648514,424.070557 251.075668,403.942902 260.683594,384.658936 
	C278.682495,348.533569 302.956696,317.346344 335.022888,291.499023 
M835.522583,401.977417 
	C785.383362,351.975464 735.225098,301.992584 685.113281,251.963165 
	C661.649048,228.537567 638.172119,205.122665 614.945129,181.463150 
	C610.264099,176.694977 605.480225,174.513611 598.723999,174.808823 
	C586.582336,175.339340 574.402527,174.973297 562.239136,175.053558 
	C560.338562,175.066101 558.204468,174.461670 556.654419,176.286240 
	C556.317566,178.260391 557.309387,179.888535 557.884155,181.583862 
	C563.496460,198.136597 569.335022,214.616409 574.646057,231.264694 
	C575.919312,235.255890 578.007019,236.795181 581.742126,237.617279 
	C615.012512,244.939926 645.725098,258.422180 673.633667,277.777344 
	C732.367981,318.510834 769.759888,374.147003 787.214050,443.302429 
	C788.090393,446.774567 789.618958,448.700378 793.036377,449.858643 
	C810.849731,455.896088 828.589600,462.149963 846.363098,468.305450 
	C847.575867,468.725464 848.841064,469.396027 850.685669,468.051727 
	C850.685669,457.143066 849.885498,445.775757 850.900940,434.572968 
	C852.012817,422.305878 849.325500,412.428406 838.839905,405.305969 
	C837.758484,404.571442 836.950378,403.434692 835.522583,401.977417 
M715.032776,681.553467 
	C739.595642,651.565979 756.829285,617.908936 766.921570,580.035095 
	C761.773926,579.304504 757.536865,579.224487 753.648254,578.019897 
	C748.739502,576.499207 747.082947,578.046936 745.658142,582.767334 
	C725.794434,648.577087 686.131165,698.337402 625.093384,730.611877 
	C610.318481,738.424255 594.729797,744.182983 578.725342,748.890808 
	C576.796082,749.458252 574.214844,749.414246 575.005310,752.880432 
	C575.889709,756.758118 576.523560,760.712646 576.958008,764.667542 
	C577.353333,768.266296 578.735352,768.911560 582.243408,767.957275 
	C635.540283,753.459717 679.313843,724.355225 715.032776,681.553467 
M736.260498,415.326080 
	C740.149658,425.069092 743.729919,434.919464 746.337219,445.092987 
	C746.868652,447.166473 747.675171,448.339600 750.105408,447.907623 
	C755.304871,446.983429 760.534851,446.231049 765.801331,445.400574 
	C765.801331,444.308380 765.953247,443.619720 765.778625,443.027344 
	C762.862976,433.136902 760.386780,423.097900 756.424683,413.548370 
	C724.926025,337.629608 670.228271,286.752136 591.957764,261.397675 
	C580.934814,257.826965 580.893555,257.955109 576.598083,268.885925 
	C576.293640,269.660736 576.052551,270.470612 575.661194,271.199310 
	C573.829041,274.610840 574.877258,276.059570 578.636719,277.022797 
	C597.283142,281.800385 614.945679,289.144287 631.683777,298.605225 
	C679.419312,325.586975 714.199219,364.268890 736.260498,415.326080 
M341.047028,338.537018 
	C370.256104,310.499908 403.822662,289.875732 442.852936,278.445801 
	C452.773438,275.540619 453.451294,277.338379 449.079163,265.940735 
	C446.044678,258.030182 446.126556,257.936371 438.203156,260.317047 
	C371.473389,280.366943 320.643677,320.605347 285.870728,380.927948 
	C274.861664,400.025940 266.323792,420.256165 260.942780,441.739197 
	C260.012482,445.453186 259.772705,447.882874 264.736023,447.896179 
	C267.526031,447.903687 270.381561,448.473938 273.086273,449.226593 
	C276.845490,450.272705 278.531158,448.948700 279.495331,445.291168 
	C290.276611,404.391327 311.563782,369.501434 341.047028,338.537018 
M447.887421,748.462891 
	C431.890320,744.253479 416.571045,738.423706 401.848267,730.758118 
	C342.703491,699.963989 303.637756,652.288513 282.122620,589.621460 
	C280.627747,585.267212 281.358429,579.270203 277.475403,576.855774 
	C273.477417,574.369812 268.092621,577.284546 263.291962,577.275146 
	C260.083405,577.268860 259.313934,578.460510 260.157684,581.618469 
	C264.293915,597.099365 269.407806,612.233643 276.432983,626.638489 
	C302.251434,679.578125 341.457214,719.638672 393.311829,747.378601 
	C409.086578,755.817322 425.770721,762.030151 443.009369,766.777954 
	C445.573059,767.484070 447.973785,768.265991 448.602386,764.379272 
	C449.265228,760.281128 449.919952,756.163635 450.948090,752.149353 
	C451.567841,749.729736 450.255981,749.236511 447.887421,748.462891 
M121.820030,516.628052 
	C159.258224,528.619690 195.836578,543.189270 234.393753,554.759033 
	C230.775406,526.969971 230.482101,500.004089 234.379700,471.972870 
	C193.738037,485.768036 153.918747,499.284088 113.564003,512.981873 
	C116.240250,515.232178 118.794365,515.511414 121.820030,516.628052 
M871.162781,498.441315 
	C845.617798,489.583618 820.072815,480.725922 792.764709,471.256866 
	C796.734680,499.566040 796.873108,526.256226 792.740295,554.061157 
	C832.724670,540.484863 870.920471,526.398071 909.727234,514.091980 
	C909.713318,513.632629 909.699402,513.173340 909.685486,512.713989 
	C897.088989,508.049164 884.492554,503.384338 871.162781,498.441315 
M516.493469,796.245056 
	C502.046936,796.673706 487.714783,794.574768 472.208649,793.794739 
	C485.869141,833.250122 499.259735,871.926025 512.650330,910.601868 
	C527.390015,872.250732 539.899048,833.643677 552.879639,794.485413 
	C540.325623,795.107971 528.907288,795.674255 516.493469,796.245056 
M539.066101,190.295441 
	C530.637573,165.371201 522.208984,140.446976 513.552979,114.850113 
	C509.092041,124.514885 473.901703,229.131592 474.060730,232.669800 
	C500.287964,228.013016 526.537598,228.833160 553.796692,233.339493 
	C548.666138,218.311066 544.009583,204.671082 539.066101,190.295441 
M517.263184,664.157043 
	C515.809875,661.134155 515.201965,657.652100 512.206726,654.535278 
	C501.491150,681.291992 491.012360,707.457458 480.183838,734.496155 
	C502.099518,737.521606 523.192078,737.609741 545.009216,734.381348 
	C536.356750,710.291382 526.497620,687.756470 517.263184,664.157043 
M510.614319,288.347809 
	C501.220978,289.333221 491.571198,288.545135 482.130676,291.797424 
	C492.391815,318.256287 502.388947,344.034454 512.549011,370.232727 
	C513.418335,369.283051 513.855530,368.988892 514.037109,368.580963 
	C524.792114,344.416962 533.359619,319.384949 543.250549,294.877258 
	C544.512756,291.749695 542.673035,290.635254 539.891785,290.357147 
	C530.466675,289.414734 521.045654,288.415955 510.614319,288.347809 
M752.908386,549.072205 
	C752.524170,551.681030 752.139893,554.289795 751.709412,557.212708 
	C756.485596,558.928589 761.192139,559.451477 766.001160,559.763184 
	C769.735779,560.005310 771.065613,558.095642 771.547791,554.904175 
	C775.572815,528.263306 775.842651,501.600464 771.897949,474.931458 
	C770.374939,464.635193 770.282593,464.648865 760.057312,466.438812 
	C751.631409,467.913788 751.448486,468.369446 752.819153,476.767395 
	C755.017639,490.237427 756.277161,503.820740 755.937012,517.470093 
	C755.680420,527.764954 754.700623,538.034668 752.908386,549.072205 
M264.411316,468.324341 
	C263.745972,468.292725 263.076843,468.295898 262.415863,468.224091 
	C255.880035,467.514069 255.859818,467.508606 255.251923,473.935455 
	C254.500565,481.878815 253.821182,489.829102 253.051559,497.770660 
	C251.243073,516.431824 252.621216,534.956848 255.244659,553.445618 
	C255.561111,555.675903 256.368683,556.875977 258.672638,556.674194 
	C263.416382,556.258545 268.155701,555.792358 273.101654,555.327698 
	C272.987976,553.774658 272.985901,552.793518 272.835907,551.835632 
	C268.920959,526.837280 268.753174,501.844391 272.616913,476.809570 
	C273.757263,469.420776 273.494904,469.380280 264.411316,468.324341 
M517.489380,757.312195 
	C503.503693,757.603638 489.600891,756.571838 475.761047,754.627563 
	C473.684021,754.335693 472.088104,754.652283 471.486176,756.897522 
	C470.543854,760.412292 469.274689,763.806946 469.123749,767.560730 
	C468.977356,771.200989 470.227295,772.418518 473.859039,772.816345 
	C498.065796,775.467957 522.270020,775.820923 546.536560,773.724365 
	C557.722839,772.757935 559.020508,771.060547 555.645691,760.147400 
	C555.400391,759.354004 555.033813,758.593079 554.843445,757.788696 
	C554.183472,755.001160 552.626709,754.217102 549.722900,754.617065 
	C539.362427,756.044250 528.974121,757.317139 517.489380,757.312195 
M557.546936,254.410522 
	C556.605652,254.089325 555.686951,253.604340 554.719788,253.470840 
	C529.386780,249.974579 504.006683,249.522614 478.585907,252.426208 
	C466.535828,253.802582 466.538879,253.828125 470.942078,265.028625 
	C471.063843,265.338409 471.227783,265.642700 471.284943,265.964996 
	C472.079956,270.450104 474.958069,271.288879 478.994720,270.688507 
	C494.650635,268.359985 510.322174,267.136292 526.206238,268.496735 
	C533.330078,269.106842 540.436829,269.727264 547.529053,270.623352 
	C549.782288,270.908081 552.426514,271.462677 553.506104,268.500610 
	C555.141724,264.013000 557.698364,259.824524 557.546936,254.410522 
M103.574913,488.074921 
	C100.442474,491.282654 97.310028,494.490387 93.358215,498.537170 
	C113.390381,491.742371 132.080063,485.327545 150.834488,479.107910 
	C154.398056,477.926117 155.833939,476.106995 155.727936,472.273529 
	C155.479828,463.302368 155.678024,454.319580 155.621994,445.341919 
	C155.609009,443.261566 156.011490,441.015625 153.765244,438.733154 
	C137.168137,455.052399 120.625656,471.317932 103.574913,488.074921 
M107.617828,541.882141 
	C123.214981,557.360657 138.812134,572.839172 154.409286,588.317688 
	C155.607224,576.462341 155.471008,565.342834 155.680954,554.229858 
	C155.754639,550.329956 154.042755,548.652161 150.598755,547.486877 
	C137.995758,543.222900 125.458786,538.762756 112.913368,534.330017 
	C106.757774,532.155029 100.638260,529.877869 94.502411,527.646973 
	C94.310455,527.951172 94.118492,528.255310 93.926529,528.559448 
	C98.324654,532.832703 102.722771,537.105896 107.617828,541.882141 
M907.019592,471.480408 
	C895.553223,460.214996 884.283813,448.740082 871.561768,437.568756 
	C871.421936,440.015564 871.261841,441.617767 871.250122,443.221039 
	C871.183105,452.380402 871.430725,461.553436 870.992554,470.694061 
	C870.766052,475.418213 872.496887,477.504547 876.835144,478.922577 
	C893.597351,484.401642 910.252686,490.207062 926.958557,495.859406 
	C928.109436,496.248779 929.309021,497.189392 931.769104,495.117371 
	C923.601746,487.322784 915.562195,479.650116 907.019592,471.480408 
M546.378784,148.213684 
	C547.193115,153.725433 550.415649,155.259781 555.806396,154.987961 
	C564.444031,154.552429 573.121521,154.946976 581.781128,154.872894 
	C583.446472,154.858627 585.427551,155.635788 587.094421,153.377304 
	C568.702148,133.399307 549.471985,114.273727 529.374390,95.822037 
	C534.972961,113.031075 540.571594,130.240112 546.378784,148.213684 
M446.888336,145.375946 
	C444.564911,148.458801 441.117828,150.649994 439.027954,154.891907 
	C450.655396,154.891907 461.627502,154.723053 472.589600,154.980316 
	C476.615936,155.074814 478.543945,153.722046 479.752594,149.876389 
	C484.589355,134.487259 489.730225,119.193863 494.708435,103.848770 
	C495.397461,101.724930 496.779114,99.719772 496.213745,95.887970 
	C479.167450,112.412689 463.039978,128.402512 446.888336,145.375946 
M453.724670,887.776611 
	C467.990540,901.894775 482.256409,916.012939 496.522278,930.131165 
	C490.977753,911.124146 484.646057,892.647217 478.283081,874.181030 
	C477.782043,872.726990 476.961212,871.410278 475.152618,871.407715 
	C463.251434,871.390930 451.350281,871.399109 437.830048,871.399109 
	C443.657684,877.407593 448.442505,882.340942 453.724670,887.776611 
M538.068542,903.399719 
	C535.105774,912.048340 532.142944,920.697021 529.180176,929.345642 
	C529.481018,929.445435 529.781799,929.545288 530.082642,929.645081 
	C549.146118,910.300964 568.209595,890.956787 587.556091,871.325500 
	C575.476807,871.325500 563.366699,871.343506 551.256775,871.311340 
	C548.606873,871.304321 548.042847,873.206421 547.401367,875.144592 
	C544.368042,884.310364 541.322021,893.472046 538.068542,903.399719 
M878.847595,546.465515 
	C871.237610,549.072998 871.230774,549.072998 871.199280,557.246277 
	C871.169861,564.899536 871.096130,572.553345 871.175354,580.205627 
	C871.198303,582.422729 870.681335,584.797668 872.588806,587.984558 
	C891.544067,567.817871 910.115845,548.059143 926.110352,531.042358 
	C913.375488,535.292603 896.239868,540.001465 878.847595,546.465515 
M684.000000,220.497253 
	C685.235046,221.496780 686.038025,223.205429 687.995178,222.997787 
	C691.696472,219.019363 692.499084,215.059799 690.070312,212.489822 
	C687.654724,209.933762 685.711121,212.446274 683.973267,213.463272 
	C680.984131,215.212662 681.220886,217.668884 684.000000,220.497253 
z"/>
<path fill="#A9A9A9
" opacity="1.000000" stroke="none" 
	d="
M374.000061,417.683228 
	C387.665192,417.691040 400.840698,417.369934 413.992981,417.784363 
	C433.209961,418.389923 450.669312,423.844910 464.767426,437.771210 
	C475.923218,448.791016 480.759125,462.643158 482.031555,477.717712 
	C483.795715,498.617645 478.940460,517.757141 464.590820,533.794556 
	C460.204803,538.696411 454.965393,542.477051 449.222900,545.616516 
	C447.646088,546.478516 445.801727,546.955688 444.143524,549.163269 
	C458.021454,568.371887 471.979553,587.691467 486.281921,607.487549 
	C482.789703,608.822510 479.799164,608.256531 476.915100,608.295654 
	C469.583832,608.395203 462.246460,608.209473 454.920044,608.426025 
	C451.680237,608.521729 449.766418,607.234070 447.937988,604.684509 
	C436.772156,589.114807 425.422424,573.677124 414.219452,558.133850 
	C412.389893,555.595520 410.408417,554.635376 407.126068,554.715454 
	C393.802338,555.040283 380.466370,555.096069 367.139313,554.918640 
	C362.627991,554.858643 360.975494,556.229431 361.064880,560.885620 
	C361.330261,574.712463 361.064484,588.549072 361.289307,602.377258 
	C361.362640,606.886780 359.937927,608.627991 355.275513,608.406128 
	C347.958435,608.058167 340.607727,608.064941 333.284973,608.317871 
	C328.819092,608.472107 327.598297,606.695923 327.617645,602.444397 
	C327.751129,573.115112 327.688812,543.784851 327.679108,514.454956 
	C327.669128,484.291809 327.756653,454.127808 327.523682,423.966339 
	C327.484589,418.905151 328.923126,417.395538 334.008148,417.535736 
	C347.163483,417.898529 360.334991,417.673523 374.000061,417.683228 
M361.072144,512.498230 
	C361.059875,516.990356 361.048035,521.482422 361.035187,525.974548 
	C361.028412,528.342834 361.957184,529.757019 364.573090,529.690002 
	C381.021454,529.268677 397.541504,531.005554 413.913422,528.637024 
	C426.990112,526.745117 438.209198,521.098083 444.732819,509.027802 
	C452.009918,495.563385 452.533600,481.251862 447.155029,467.062256 
	C441.005524,450.838745 427.147949,445.401764 411.450256,444.482666 
	C396.688660,443.618408 381.836609,444.409943 367.032043,444.102753 
	C362.341125,444.005432 361.076721,445.605988 361.109619,450.095490 
	C361.259613,470.562195 361.114777,491.031006 361.072144,512.498230 
z"/>
<path fill="#A9A9A9
" opacity="1.000000" stroke="none" 
	d="
M572.388794,596.719360 
	C544.872803,579.549194 530.245422,555.076965 527.479675,523.111267 
	C525.552551,500.838287 529.131104,479.796204 541.030823,460.853241 
	C556.484619,436.252747 579.054871,421.566376 607.725464,416.805969 
	C632.234253,412.736603 655.838501,415.510986 677.734985,428.073456 
	C687.039551,433.411682 695.281860,440.131714 702.773804,447.826324 
	C705.326233,450.447815 705.391357,452.336945 702.644043,454.809937 
	C697.816406,459.155579 693.106934,463.646332 688.557800,468.282257 
	C685.947937,470.941925 684.185486,470.760071 681.628845,468.051300 
	C665.799744,451.280457 646.236267,443.134369 623.187195,443.321350 
	C593.086121,443.565521 565.674255,468.636444 562.268188,498.572968 
	C560.723267,512.151611 560.835327,525.477539 565.279785,538.504456 
	C576.258057,570.681519 610.029785,588.486572 642.979797,579.961243 
	C658.551636,575.932251 671.259277,567.607300 681.920776,555.933167 
	C684.441101,553.173401 686.191833,552.799316 688.831665,555.389893 
	C693.708069,560.175110 698.652344,564.894958 703.682495,569.517883 
	C705.960999,571.611938 705.608215,573.100220 703.654236,575.317627 
	C669.367981,614.224670 612.746155,619.748779 572.388794,596.719360 
z"/>
<path fill="#A9A9A9
" opacity="1.000000" stroke="none" 
	d="
M254.852814,813.876892 
	C267.537262,797.939880 278.413177,780.976868 293.062988,766.297485 
	C294.597687,769.490479 292.831696,771.042969 291.842224,772.791748 
	C291.106232,774.092468 290.351196,775.391724 289.746033,776.754395 
	C289.194794,777.995789 288.812134,779.426880 290.178986,780.368835 
	C291.534149,781.302673 292.749512,780.446411 293.754211,779.540100 
	C296.544922,777.022156 299.116821,774.206055 304.305176,772.470276 
	C285.557007,797.660950 267.582977,821.669983 248.739655,844.875183 
	C245.545471,843.223877 245.337631,839.204590 241.594650,840.380615 
	C239.246765,841.118286 237.651123,843.552917 233.423172,843.151428 
	C239.803726,832.395447 247.482559,823.455383 254.852814,813.876892 
z"/>
<path fill="#A9A9A9
" opacity="1.000000" stroke="none" 
	d="
M249.180634,743.225037 
	C237.610825,752.521790 226.350525,761.638855 214.584152,770.105225 
	C213.097794,771.174805 211.700256,772.410522 209.786987,772.643738 
	C208.261398,772.829651 206.696167,772.102600 206.755081,770.730286 
	C206.949570,766.198730 205.401550,760.952271 209.119537,757.423462 
	C221.942017,745.253540 236.000626,734.590088 250.634415,724.686646 
	C250.858658,724.534851 251.275467,724.667664 251.717361,724.667664 
	C252.595886,726.766785 250.864243,728.000854 249.996368,729.454895 
	C247.156876,734.211975 247.622116,735.212341 253.170929,736.004028 
	C253.768265,736.089294 254.340088,736.353394 255.227097,736.628601 
	C253.955368,739.652649 251.398544,741.062439 249.180634,743.225037 
z"/>
<path fill="#A9A9A9
" opacity="1.000000" stroke="none" 
	d="
M788.349121,733.637573 
	C804.534363,746.945129 820.453064,760.015259 836.899414,773.518738 
	C832.260132,776.725769 828.771912,779.595703 829.990906,785.369446 
	C807.582458,771.264526 789.601990,752.164856 769.265320,736.376648 
	C770.291626,732.972534 773.172974,732.769104 774.511658,730.852783 
	C776.215454,728.413757 773.980225,726.412231 774.083984,723.164795 
	C779.647583,725.899719 783.603638,730.046997 788.349121,733.637573 
z"/>
<path fill="#A9A9A9
" opacity="1.000000" stroke="none" 
	d="
M803.976074,692.020386 
	C807.070679,692.033936 810.178162,692.033936 813.092285,692.033936 
	C813.400269,691.233765 813.577820,690.937134 813.625916,690.620911 
	C813.936646,688.575439 810.686523,686.450562 813.135315,684.732788 
	C815.381409,683.157166 817.639771,685.389832 819.437439,686.567810 
	C822.896301,688.834534 826.811096,691.288147 822.770447,696.396057 
	C822.055847,697.299377 822.250122,698.921692 821.914185,700.844360 
	C814.974304,700.151855 809.553833,696.629211 804.194275,692.260254 
	C804.009705,691.976685 803.988953,692.006836 803.976074,692.020386 
z"/>
<path fill="#A9A9A9
" opacity="1.000000" stroke="none" 
	d="
M758.702271,228.674042 
	C749.854370,239.457214 741.230042,249.962128 732.088989,261.096497 
	C730.154541,256.109558 726.579285,253.645538 722.091797,251.986313 
	C723.486267,247.028549 727.024841,243.868057 729.865784,240.333328 
	C742.893494,224.123581 756.020996,207.993729 769.169983,191.882019 
	C771.907349,188.527908 774.718201,185.368286 779.180054,190.129105 
	C781.120483,192.199509 783.957153,189.963531 787.417236,190.630814 
	C779.172119,204.556213 768.449036,216.041763 758.702271,228.674042 
z"/>
<path fill="#A9A9A9
" opacity="1.000000" stroke="none" 
	d="
M848.662476,228.017639 
	C849.318237,230.693329 847.820740,232.720261 846.456116,234.822739 
	C843.226135,239.799637 843.439026,240.496674 849.829956,243.166275 
	C825.278809,264.513031 799.628845,283.497925 773.265381,302.147156 
	C775.332153,298.389587 776.966248,294.126312 781.016235,291.176270 
	C784.434326,288.686462 783.314453,285.661224 778.781311,283.620911 
	C779.719666,280.972626 781.958496,279.370636 783.913269,277.692871 
	C803.639221,260.762390 824.228638,244.922729 845.182129,229.551376 
	C846.096985,228.880234 847.259583,228.546936 848.662476,228.017639 
z"/>
</g>
</svg>